<svg width="226" height="249" viewBox="0 0 226 249" fill="none" xmlns="http://www.w3.org/2000/svg">
<path d="M210.694 62.5504C208.761 61.064 205.926 60.4627 204.677 58.6297C203.383 56.7341 203.613 53.8488 202.965 51.4521C198.164 33.6814 182.293 19.9066 164.401 18.0694C162.422 17.8648 161.061 17.4097 159.783 15.6978C148.91 1.27581 130.321 -3.18774 114.433 4.6955C114.084 4.89944 113.686 5.00446 113.281 4.99931C112.877 4.99416 112.481 4.87903 112.137 4.66627C96.2703 -3.4842 77.844 1.76851 67.4597 14.9587C65.8939 16.9504 64.3323 17.8231 61.7561 18.1738C43.0334 20.7041 27.8682 34.1825 23.4756 52.5544C22.4484 56.8551 20.7574 59.494 16.9911 62.0202C-0.128187 73.4818 -4.43307 97.9707 7.12456 115.679C7.95964 116.931 7.98887 117.821 7.40848 119.203C0.665141 135.249 2.91153 150.101 14.1811 163.254C17.2083 166.778 18.774 170.198 19.6091 174.72C23.2167 193.952 33.9518 207.752 52.2778 215.221C53.6933 215.798 54.4532 216.512 54.9459 217.977C62.7289 241.259 89.5436 254.838 112.225 244.445C113.193 244.003 113.924 244.237 114.759 244.6C119.886 246.873 125.435 248.038 131.043 248.019C133.473 247.894 136.254 247.761 138.977 247.13C155.311 243.343 166.155 233.418 171.804 217.706C172.155 216.729 172.468 215.969 173.662 215.493C193.195 207.722 204.143 193.054 207.416 172.565C207.926 169.388 208.92 167.116 211.237 164.82C223.225 152.953 226.269 134.034 219.012 118.572C218.686 117.883 218.406 117.32 219.012 116.526C223.087 110.944 225.133 104.593 225.742 97.7745C227.033 83.3776 222.31 71.4859 210.694 62.5504ZM105.348 229.009C105.348 232.107 105.348 232.107 102.383 232.767C85.0634 236.691 66.8334 222.157 66.6956 204.353C66.6727 203.052 67.0121 201.771 67.6758 200.652C68.3394 199.534 69.3012 198.622 70.4535 198.019C73.0799 196.536 75.9776 196.766 78.5789 198.436C80.103 199.396 81.5017 200.57 82.9506 201.626C85.3682 203.38 87.9611 203.781 90.529 202.14C93.0969 200.499 94.17 198.039 93.765 194.975C93.6147 193.835 93.2347 192.737 92.3746 192.018C88.387 188.678 84.4412 185.263 79.1677 183.997C68.1445 181.35 57.2925 187.38 53.8144 198.24C53.2632 199.952 52.783 199.856 51.5095 199.075C40.4822 192.344 33.8432 182.553 32.5614 169.776C31.6636 160.811 36.3193 153.984 43.5595 148.919C46.4322 146.907 49.7517 145.867 53.0544 144.79C55.6975 143.93 57.4094 142.097 57.8478 139.295C58.2988 136.41 57.184 134.113 54.8582 132.431C52.9083 131.019 50.7454 131.015 48.4907 131.629C37.6972 134.552 29.2126 140.585 23.4171 150.243C23.2084 150.59 22.9453 150.899 22.6948 151.245C16.1435 143.195 15.4337 130.013 20.9954 120.614C23.8806 115.737 23.7261 114.255 19.8597 109.983C10.7405 99.8956 12.014 82.5884 22.486 73.845C23.3963 73.0893 23.7679 72.9014 24.3065 74.2208C29.5843 87.0979 39.121 95.574 51.8644 100.727C55.6724 102.267 59.422 100.981 61.0212 97.5114C62.6914 93.9122 61.3427 89.9956 57.7518 88.1292C55.6641 87.0436 53.4469 86.196 51.4051 85.0352C42.9164 80.2126 37.4633 73.1018 35.5677 63.444C34.7869 59.4648 35.9852 55.7278 37.3381 52.0784C41.9895 39.3392 53.3592 31.339 66.8334 31.3348C70.5913 31.3348 73.0214 29.8985 74.7667 26.4746C80.2366 15.6644 92.3704 11.0965 103.369 15.393C104.909 15.9942 105.389 16.7458 105.389 18.4077C105.339 88.6052 105.325 158.806 105.348 229.009ZM205.4 111.457C202.661 114.401 202.615 116.794 204.656 120.314C210.598 130.564 210.381 140.773 204.168 150.823C203.977 151.097 203.768 151.356 203.542 151.6C202.832 151.274 202.74 150.598 202.439 150.089C196.615 140.113 187.687 134.502 176.689 131.888C173.157 131.053 169.295 133.525 168.397 136.898C167.499 140.272 169.487 143.997 172.99 145.249C175.595 146.185 178.276 146.919 180.731 148.243C188.109 152.214 192.314 158.59 193.725 166.615C194.464 170.79 193.036 175.02 191.575 179.012C188.431 187.576 183.078 194.369 175.169 199.054C173.959 199.772 173.432 200.023 172.806 198.273C167.796 184.24 151.236 179.45 139.369 188.499C138.041 189.509 136.659 190.448 135.377 191.509C132.421 193.939 131.954 197.86 134.208 200.791C136.605 203.91 140.38 204.49 143.611 202.198C145.252 201.033 146.831 199.776 148.463 198.599C151.023 196.753 153.62 196.962 156.276 198.436C158.856 199.868 160.033 202.077 159.954 204.946C159.411 223.606 140.501 237.669 122.596 232.796C120.926 232.345 120.333 231.693 120.333 229.873C120.392 159.525 120.392 89.1759 120.333 18.8252C120.333 17.1049 120.922 16.4285 122.421 15.8565C127.62 13.8155 133.392 13.782 138.614 15.7625C143.836 17.7429 148.134 21.5956 150.672 26.5706C152.63 30.3285 155.299 31.8442 159.441 31.8401C175.971 31.815 189.775 44.8883 190.89 61.398C190.974 62.6172 190.631 63.7404 190.33 64.8678C187.408 75.724 180.514 83.1354 170.38 87.7117C168.931 88.3672 167.457 88.9643 166.347 90.2169C164.042 92.7848 163.758 96.0625 165.67 98.8142C166.573 100.146 167.911 101.124 169.454 101.581C170.997 102.038 172.651 101.945 174.134 101.319C186.936 96.0667 196.627 87.8703 202.481 73.4024C208.251 77.6071 211.304 83.198 212.139 89.9706C213.187 98.1294 211.082 105.349 205.4 111.457Z" fill="url(#paint0_linear_45_72)"/>
<path d="M149.925 129.266C150.225 124.744 151.871 120.677 153.921 116.693C156.468 111.754 153.232 106.434 147.148 106.38C144.914 106.434 143.031 107.896 141.62 110.301C130.793 128.735 136.467 150.385 148.923 163.951C151.975 167.271 156.438 167.321 159.603 164.227C162.526 161.379 162.155 157.567 159.027 154.11C152.681 147.087 149.294 138.894 149.925 129.266Z" fill="url(#paint1_linear_45_72)"/>
<path d="M139.34 76.9808C138.705 77.5192 138.1 78.0921 137.528 78.6969C136.589 79.7695 135.995 81.0999 135.823 82.5149C135.651 83.9299 135.909 85.3639 136.563 86.6302C137.891 89.1564 139.87 90.0708 143.206 89.7451C145.327 89.5405 146.927 88.3589 148.463 87.0269C154.96 81.39 159.762 74.8346 160.067 65.3981C159.649 54.5211 153.678 46.738 144.434 41.1429C141.156 39.193 137.373 40.4665 135.436 43.6983C133.444 47.0136 134.108 50.6379 137.231 52.9093C139.828 54.7966 142.271 56.8301 144.163 59.4523C146.952 63.3229 147.085 67.0349 144.538 71.0517C143.084 73.2559 141.335 75.2507 139.34 76.9808Z" fill="url(#paint2_linear_45_72)"/>
<path d="M75.5057 107.253C71.8773 109.244 70.658 113.069 72.8042 116.856C80.2616 130.001 76.7918 143.475 68.3031 153.771C67.6558 154.496 67.06 155.265 66.5202 156.072C64.5786 159.262 65.3009 163.5 68.1027 165.651C70.9044 167.801 75.1842 167.379 77.6895 164.486C85.8358 155.183 90.3954 144.414 90.7878 133.011C90.7503 124.243 88.7001 117.032 84.7752 110.384C82.6583 106.835 78.654 105.537 75.5057 107.253Z" fill="url(#paint3_linear_45_72)"/>
<path d="M89.3807 52.9385C92.6167 50.546 93.243 46.6754 91.0175 43.3726C88.8672 40.1533 84.8921 39.3433 81.5059 41.5438C79.9398 42.5722 78.452 43.7152 77.0548 44.9635C71.1508 50.2162 67.0338 56.4376 66.7373 64.634C66.7373 64.9805 66.7164 65.3313 66.7373 65.6737C67.4137 75.5026 72.9629 82.5299 80.1488 88.4799C82.604 90.5175 85.5769 90.3213 88.316 88.5551C90.9006 86.8849 91.6814 84.4464 91.2388 81.5195C90.934 79.557 89.7816 78.1165 88.2659 76.9265C85.8441 75.0183 83.6938 72.8512 82.2032 70.133C80.0152 66.1538 80.2449 62.3124 83.1009 58.684C84.8754 56.4125 87.0759 54.6421 89.3807 52.9385Z" fill="url(#paint4_linear_45_72)"/>
<defs>
<linearGradient id="paint0_linear_45_72" x1="0.653076" y1="0.779053" x2="254.15" y2="34.2153" gradientUnits="userSpaceOnUse">
<stop stop-color="#6DDCFF"/>
<stop offset="1" stop-color="#7F60F9"/>
</linearGradient>
<linearGradient id="paint1_linear_45_72" x1="135.886" y1="106.38" x2="165.207" y2="108.195" gradientUnits="userSpaceOnUse">
<stop stop-color="#6DDCFF"/>
<stop offset="1" stop-color="#7F60F9"/>
</linearGradient>
<linearGradient id="paint2_linear_45_72" x1="134.305" y1="40.2197" x2="163.63" y2="42.4249" gradientUnits="userSpaceOnUse">
<stop stop-color="#6DDCFF"/>
<stop offset="1" stop-color="#7F60F9"/>
</linearGradient>
<linearGradient id="paint3_linear_45_72" x1="65.4287" y1="106.501" x2="94.3521" y2="108.256" gradientUnits="userSpaceOnUse">
<stop stop-color="#6DDCFF"/>
<stop offset="1" stop-color="#7F60F9"/>
</linearGradient>
<linearGradient id="paint4_linear_45_72" x1="66.728" y1="40.3064" x2="95.8788" y2="42.4831" gradientUnits="userSpaceOnUse">
<stop stop-color="#6DDCFF"/>
<stop offset="1" stop-color="#7F60F9"/>
</linearGradient>
</defs>
</svg>
