<svg width="96" height="90" viewBox="0 0 96 90" fill="none" xmlns="http://www.w3.org/2000/svg">
<path d="M12.1254 42.6266C11.3157 42.2776 10.4323 42.1345 9.55384 42.2101C7.56384 42.5601 7.00384 43.6001 8.19384 45.3501C11.8077 50.0887 14.7763 54.9658 19.5039 59C15.4227 56.0704 12.5892 51.6755 8.00391 46C6.85391 44.04 6.50391 42.6266 9.00391 42C9.84391 41.37 9.19384 40.6101 9.00384 40.0001C7.56785 35.5954 5.80632 31.3035 3.73384 27.1601C3.64239 26.8915 3.49646 26.6448 3.3052 26.4353C3.11394 26.2258 2.88147 26.058 2.62236 25.9426C2.36325 25.8271 2.08307 25.7664 1.7994 25.7642C1.51573 25.7621 1.23467 25.8185 0.973842 25.9301C-0.126158 26.3601 -0.0461583 27.3601 0.0538417 28.2701C0.583842 33.0801 1.22384 37.8701 1.64384 42.6901C1.89196 45.1464 2.63344 47.5273 3.82384 49.6901C5.77384 53.3601 7.74384 57.0001 9.39384 60.8001C10.3522 63.0842 12.0401 64.9866 14.1938 66.2101C18.7338 68.8701 23.2338 71.6401 27.7338 74.3701C28.856 75.002 29.786 75.9261 30.4251 77.0441C31.0643 78.1622 31.3887 79.4325 31.3638 80.7201C31.3838 82.1501 31.5038 83.6701 31.5738 85.1501C31.5512 85.6768 31.6892 86.198 31.9696 86.6445C32.25 87.091 32.6595 87.4417 33.1438 87.6501C36.3938 88.9401 39.8238 89.9601 43.3938 89.6001C46.7538 89.2601 47.8438 87.8801 47.6438 84.8801C47.3596 78.9746 46.5396 73.1072 45.1938 67.3501C43.8338 62.0201 40.2938 58.3801 35.2938 56.2101C33.3727 55.4232 31.3847 54.8107 29.3538 54.3801C23.6138 53.0701 18.5738 50.6601 15.2538 45.5001C14.9311 45.0458 14.5769 44.6148 14.1938 44.2101C13.6456 43.5196 12.935 42.9756 12.1254 42.6266Z" fill="url(#paint0_linear_44_42)"/>
<path d="M83.5453 42.8624C84.3549 42.5134 85.2384 42.3703 86.1168 42.4459C88.1068 42.7959 88.6668 43.8359 87.4768 45.5859C83.8629 50.3245 80.8943 55.2016 76.1667 59.2358C80.248 56.3062 83.0815 51.9113 87.6667 46.2358C88.8167 44.2758 89.1667 42.8624 86.6667 42.2358C85.8267 41.6058 86.4768 40.8459 86.6668 40.2359C88.1028 35.8312 89.8643 31.5394 91.9368 27.3959C92.0283 27.1274 92.1742 26.8806 92.3655 26.6711C92.5567 26.4616 92.7892 26.2939 93.0483 26.1784C93.3074 26.0629 93.5876 26.0022 93.8713 26.0001C94.1549 25.9979 94.436 26.0544 94.6968 26.1659C95.7968 26.5959 95.7168 27.5959 95.6168 28.5059C95.0868 33.3159 94.4468 38.1059 94.0268 42.9259C93.7787 45.3822 93.0372 47.7631 91.8468 49.9259C89.8968 53.5959 87.9268 57.2359 86.2768 61.0359C85.3185 63.32 83.6306 65.2224 81.4768 66.4459C76.9368 69.1059 72.4368 71.8759 67.9368 74.6059C66.8147 75.2379 65.8847 76.1619 65.2455 77.28C64.6064 78.398 64.282 79.6683 64.3068 80.9559C64.2868 82.3859 64.1668 83.9059 64.0968 85.3859C64.1195 85.9127 63.9814 86.4339 63.701 86.8804C63.4206 87.3268 63.0111 87.6775 62.5268 87.8859C59.2768 89.1759 55.8468 90.1959 52.2768 89.8359C48.9168 89.4959 47.8268 88.1159 48.0268 85.1159C48.311 79.2105 49.131 73.343 50.4768 67.5859C51.8368 62.2559 55.3768 58.6159 60.3768 56.4459C62.2979 55.6591 64.2859 55.0466 66.3168 54.6159C72.0568 53.3059 77.0968 50.8959 80.4168 45.7359C80.7395 45.2817 81.0937 44.8506 81.4768 44.4459C82.025 43.7554 82.7357 43.2114 83.5453 42.8624Z" fill="url(#paint1_linear_44_42)"/>
<path fill-rule="evenodd" clip-rule="evenodd" d="M40.6106 51.0631C42.9926 52.0891 45.5576 52.6221 48.1511 52.63C52.5436 52.6079 56.7978 51.0919 60.2144 48.3313C63.6311 45.5708 66.0068 41.7299 66.9511 37.44C68.0111 32.74 66.8111 28.5 64.8111 24.38C60.5411 15.65 54.6911 7.94004 48.6911 0.380042C48.1711 -0.272107 47.9385 0.0387996 47.6716 0.395593C47.6357 0.443657 47.5991 0.492554 47.5611 0.540042C41.8542 7.32933 36.8206 14.6571 32.5311 22.42C30.8511 25.61 29.2211 28.87 29.0211 32.52C28.8996 35.1107 29.3039 37.6992 30.2097 40.1294C31.1155 42.5596 32.504 44.7812 34.2916 46.6603C36.0791 48.5394 38.2286 50.0371 40.6106 51.0631ZM47.1911 46.75C44.3185 45.0198 41.6945 42.9071 39.3911 40.47L38.8211 39.79C36.5483 36.5837 35.0741 32.881 34.5211 28.99C32.8711 31.62 34.2211 38.12 37.0111 41.5C38.2362 43.0495 39.7782 44.3195 41.5339 45.2249C43.2895 46.1303 45.2183 46.6503 47.1911 46.75Z" fill="url(#paint2_linear_44_42)"/>
<defs>
<linearGradient id="paint0_linear_44_42" x1="0" y1="25.7642" x2="53.9376" y2="31.5873" gradientUnits="userSpaceOnUse">
<stop stop-color="#6DDCFF"/>
<stop offset="1" stop-color="#7F60F9"/>
</linearGradient>
<linearGradient id="paint1_linear_44_42" x1="95.6707" y1="26" x2="41.733" y2="31.8231" gradientUnits="userSpaceOnUse">
<stop stop-color="#6DDCFF"/>
<stop offset="1" stop-color="#7F60F9"/>
</linearGradient>
<linearGradient id="paint2_linear_44_42" x1="29" y1="0" x2="72.4129" y2="4.57835" gradientUnits="userSpaceOnUse">
<stop stop-color="#6DDCFF"/>
<stop offset="1" stop-color="#7F60F9"/>
</linearGradient>
</defs>
</svg>
