<svg width="248" height="260" viewBox="0 0 248 260" fill="none" xmlns="http://www.w3.org/2000/svg">
<path fill-rule="evenodd" clip-rule="evenodd" d="M4.69737 173.718C7.07055 173.726 9.43364 173.409 11.7205 172.774C15.4671 171.956 18.9189 169.7 21.5829 167.029C23.3809 165.223 24.7584 163.091 26.1339 160.962C26.2661 160.757 26.3983 160.552 26.5308 160.348C28.9525 156.64 29.4035 152.924 27.6289 148.557C24.5057 140.857 22.2008 132.84 20.0338 124.807C18.7561 119.654 18.9523 114.51 20.0839 109.358C22.2134 100.898 26.0422 93.3698 32.4181 87.3154C40.2137 79.9124 49.4623 75.833 60.2558 77.2944C76.7446 79.5491 91.6217 89.8917 95.8556 108.126C97.1083 113.512 97.1751 119.02 96.7241 124.523C96.127 131.734 95.6844 138.949 95.4715 146.181C95.422 146.903 95.5507 147.627 95.8463 148.288C96.1419 148.949 96.5953 149.527 97.1667 149.972C101.964 154.093 107.605 155.208 113.71 154.674C114.129 154.636 114.548 154.601 114.968 154.565L114.971 154.565C118.545 154.26 122.153 153.953 125.919 152.653C123.607 157.2 120.037 160.987 115.635 163.563C110.653 166.599 105.292 168.653 99.3964 168.991C98.0686 169.071 97.6553 169.355 98.0227 170.849C99.9372 178.475 103.235 185.684 107.751 192.119C112.643 199.307 122.566 207.94 126.073 210.353C126.86 210.894 127.656 211.466 128.464 212.046C131.257 214.051 134.185 216.153 137.305 217.426C138.246 217.832 139.186 218.237 140.127 218.642L140.137 218.646L140.139 218.647C143.681 220.172 147.225 221.698 150.759 223.247C151.882 223.74 152.316 223.736 152.604 222.257C154.17 214.236 157.051 206.863 163.656 201.505C163.911 201.297 164.193 201.116 164.473 200.936C164.597 200.857 164.721 200.777 164.842 200.695C165.327 200.598 165.822 200.553 166.316 200.562C166.323 200.563 166.329 200.565 166.336 200.567L166.351 200.572L166.311 200.535C166.125 200.358 165.948 200.191 166.162 199.906C168.316 197.948 171.018 196.983 173.678 196.044C178.955 194.207 184.442 193.472 190.029 193.368C191.223 193.347 191.398 193.86 191.423 194.833C191.674 203.518 189.887 211.627 184.742 218.809C184.503 219.142 184.268 219.48 184.032 219.818C183.975 219.9 183.917 219.982 183.86 220.064C183.799 220.151 183.739 220.238 183.678 220.324C183.5 220.546 183.33 220.775 183.16 221.004C182.497 221.895 181.835 222.785 180.755 223.247C180.517 223.247 180.337 223.343 180.337 223.602C179.912 224.746 178.928 225.266 177.963 225.777C177.839 225.842 177.716 225.907 177.594 225.974C176.759 226.425 176.621 226.892 177.419 227.498C188.546 235.552 192.108 246.822 191.219 259.987H189.966C189.57 259.817 189.144 259.73 188.713 259.73C188.283 259.73 187.857 259.817 187.461 259.987H185.373C185.322 259.925 185.259 259.875 185.187 259.84C185.114 259.806 185.035 259.788 184.955 259.788C184.875 259.788 184.797 259.806 184.724 259.84C184.652 259.875 184.588 259.925 184.538 259.987H183.285C183.365 259.707 183.285 259.536 182.972 259.519C180.383 259.223 177.807 258.851 175.352 257.92C168.166 255.603 162.107 251.703 157.79 245.373C156.991 244.316 156.332 243.159 155.832 241.932V241.961C154.895 240.823 154.561 239.459 154.228 238.098C154.064 237.427 153.9 236.757 153.665 236.116L152.738 231.711C152.576 231.027 152.585 230.328 152.593 229.629V229.629C152.603 228.754 152.614 227.879 152.291 227.034C152.734 226.529 153.339 226.495 153.94 226.466C154.348 226.429 154.749 226.512 155.148 226.595C155.306 226.627 155.463 226.66 155.621 226.685C154.82 226.36 153.955 226.225 153.093 226.291C148.716 225.955 144.477 224.886 140.254 223.82C139.698 223.68 139.143 223.54 138.587 223.401C132.249 221.798 126.092 219.545 120.215 216.679C113.334 213.335 106.803 209.312 100.72 204.67C89.701 196.32 80.8491 186.052 73.7842 174.261C67.5747 163.844 63.1967 152.44 60.8404 140.544C60.1361 137.356 59.6244 134.128 59.308 130.878C59.308 131.747 59.3448 132.155 59.3799 132.544V132.544C59.4214 133.004 59.4604 133.436 59.4333 134.569C59.6866 142.628 60.9491 150.624 63.1912 158.369C65.5075 166.42 68.9217 174.114 73.3375 181.234C77.7628 188.3 83.063 194.778 89.1123 200.516C94.3525 205.556 103.882 212.17 106.232 213.719C108.581 215.267 118.081 219.767 122.474 221.03L122.737 221.106C127.233 222.398 136.378 225.028 143.351 225.873C144.281 226.033 145.459 226.129 146.691 226.229L146.692 226.229C148.676 226.39 150.802 226.563 152.265 227.034L152.365 227.267C140.966 229.981 127.923 229.89 116.52 227.886C115.408 227.558 114.277 227.3 113.134 227.113C108.056 226.278 103.188 224.629 98.3901 222.846C88.0425 218.988 78.3043 213.659 69.4752 207.025C61.1953 200.858 53.7839 193.76 47.5792 185.497C46.9377 184.641 46.2846 183.794 45.6316 182.946C44.1297 180.996 42.6278 179.047 41.2659 177.004C40.577 175.973 40.1845 176.106 39.3828 176.586C29.2239 182.432 18.6517 182.315 7.81643 178.82C5.43461 178.056 3.39315 176.729 1.34573 175.399L1.34472 175.398C0.897963 175.108 0.450924 174.817 0 174.532C0 173.807 0.435842 173.852 0.846555 173.895H0.846603C0.975212 173.908 1.10135 173.921 1.21088 173.91C1.67365 173.854 2.14394 173.867 2.61622 173.879H2.61637C3.31161 173.898 4.01115 173.917 4.69737 173.718ZM41.2828 100.581L39.6877 101.449C38.9946 101.925 38.3015 101.771 37.6 101.47C36.2472 100.81 35.8046 99.612 35.7461 98.2258C35.6209 95.3531 37.909 91.6745 40.5228 90.4929C43.1367 89.3112 45.1158 90.5513 45.1743 93.4157C45.2246 95.5445 44.1445 97.1779 43.0623 98.8145L43.0621 98.8147C42.8878 99.0783 42.7135 99.342 42.5437 99.6079C42.2546 100.074 41.8067 100.419 41.2828 100.581ZM71.0453 95.3616C71.8011 98.4932 74.9535 101.525 77.3544 101.525C79.2041 101.508 79.8764 100.276 80.1227 98.7103C80.628 95.5871 77.7177 91.0692 74.6946 90.1966C72.6236 89.612 71.2165 90.5515 70.799 92.7018C70.6816 93.5957 70.7658 94.5045 71.0453 95.3616Z" fill="url(#paint0_linear_47_13)"/>
<path fill-rule="evenodd" clip-rule="evenodd" d="M242.749 86.2689C240.375 86.2607 238.012 86.5782 235.726 87.2126C231.979 88.0312 228.527 90.2873 225.863 92.958C224.065 94.7636 222.688 96.896 221.312 99.0253C221.18 99.2299 221.048 99.4344 220.915 99.6387C218.494 103.346 218.043 107.063 219.817 111.43C222.94 119.13 225.245 127.147 227.412 135.18C228.69 140.333 228.494 145.477 227.362 150.629C225.233 159.089 221.404 166.617 215.028 172.671C207.232 180.074 197.984 184.154 187.19 182.692C170.701 180.438 155.824 170.095 151.59 151.861C150.338 146.475 150.271 140.967 150.722 135.464C151.319 128.253 151.762 121.038 151.975 113.806C152.024 113.084 151.895 112.36 151.6 111.699C151.304 111.038 150.851 110.459 150.279 110.015C145.482 105.894 139.841 104.779 133.736 105.313C133.317 105.35 132.898 105.386 132.478 105.422L132.475 105.422C128.901 105.727 125.293 106.034 121.527 107.334C123.839 102.787 127.409 99.0001 131.811 96.4236C136.793 93.3881 142.154 91.3337 148.05 90.9955C149.377 90.9162 149.791 90.6323 149.423 89.1375C147.509 81.5121 144.211 74.3028 139.695 67.8677C134.803 60.6794 124.88 52.0472 121.373 49.6336C120.586 49.0923 119.79 48.5208 118.982 47.9411C116.189 45.9358 113.261 43.8343 110.141 42.5604C109.2 42.155 108.26 41.75 107.319 41.3449L107.309 41.3405L107.307 41.3398C103.765 39.8148 100.221 38.289 96.6875 36.7398C95.5643 36.2471 95.1301 36.2513 94.842 37.7294C93.2762 45.7504 90.3951 53.1243 83.7896 58.4813C83.5345 58.69 83.2534 58.8705 82.9726 59.0508C82.8488 59.1302 82.7251 59.2096 82.6037 59.2914C82.1187 59.3893 81.6245 59.4341 81.1298 59.425C81.1231 59.4233 81.1165 59.4215 81.1101 59.4196L81.0954 59.4149L81.1348 59.4523C81.3212 59.6285 81.498 59.7956 81.2843 60.0805C79.1298 62.0388 76.4283 63.0033 73.7685 63.9428C68.4907 65.78 63.0042 66.5149 57.4175 66.6193C56.2233 66.6402 56.0479 66.1266 56.0229 65.1537C55.7723 56.4688 57.5594 48.3601 62.7036 41.1783C62.9429 40.8444 63.1784 40.5069 63.414 40.1693C63.4714 40.087 63.5288 40.0047 63.5863 39.9224C63.6469 39.8358 63.7075 39.7491 63.7683 39.6626C63.9457 39.4409 64.116 39.2119 64.2862 38.9831C64.9492 38.0918 65.6113 37.2016 66.6911 36.7398C66.9291 36.7398 67.1087 36.6438 67.1087 36.3849C67.5344 35.241 68.5181 34.7207 69.4835 34.21C69.607 34.1447 69.7302 34.0795 69.8519 34.0132C70.687 33.5623 70.8248 33.0947 70.0273 32.4892C58.8997 24.4348 55.3381 13.1653 56.2275 9.15527e-05H57.4801C57.8759 0.169632 58.3021 0.257034 58.7327 0.257034C59.1634 0.257034 59.5895 0.169632 59.9854 9.15527e-05H62.0731C62.1236 0.0620728 62.1873 0.11203 62.2595 0.146347C62.3317 0.180664 62.4107 0.198441 62.4906 0.198441C62.5706 0.198441 62.6495 0.180664 62.7218 0.146347C62.794 0.11203 62.8577 0.0620728 62.9082 9.15527e-05H64.1608C64.0815 0.279846 64.1608 0.451035 64.474 0.467743C67.0627 0.764206 69.639 1.13582 72.0941 2.06694C79.2801 4.38431 85.3386 8.28416 89.6561 14.6141C90.4555 15.6711 91.1138 16.8277 91.6143 18.0547V18.0255C92.5511 19.1636 92.8849 20.5282 93.2176 21.8888C93.3817 22.5598 93.5456 23.2298 93.7814 23.8711L94.7083 28.2762C94.8696 28.9602 94.8613 29.6589 94.8531 30.3576V30.3577C94.8427 31.2328 94.8324 32.1076 95.1551 32.9527C94.7125 33.4579 94.1071 33.4913 93.5058 33.5205C93.0981 33.5574 92.697 33.4745 92.2975 33.3919C92.14 33.3593 91.9828 33.3268 91.8255 33.3017C92.626 33.6268 93.4913 33.7619 94.3534 33.6959C98.7297 34.0317 102.969 35.1012 107.192 36.1666C107.748 36.3068 108.303 36.4469 108.859 36.5853C115.198 38.1893 121.354 40.442 127.231 43.3078C134.112 46.6523 140.643 50.6751 146.726 55.3164C157.745 63.6672 166.597 73.9347 173.662 85.7261C179.871 96.1428 184.249 107.547 186.606 119.443C187.31 122.631 187.822 125.859 188.138 129.109C188.138 128.24 188.101 127.832 188.066 127.443V127.443C188.025 126.983 187.986 126.551 188.013 125.418C187.759 117.359 186.497 109.363 184.255 101.618C181.938 93.5666 178.524 85.8728 174.109 78.7531C169.683 71.6871 164.383 65.2084 158.334 59.4709C153.094 54.4312 143.564 47.8164 141.214 46.2682C138.865 44.72 129.365 40.22 124.972 38.957L124.709 38.8813C120.213 37.5884 111.068 34.9584 104.095 34.1135C103.165 33.9535 101.987 33.8578 100.755 33.7578L100.754 33.7577C98.7703 33.5966 96.6439 33.424 95.1812 32.9527L95.0812 32.72C106.48 30.0059 119.523 30.0967 130.926 32.1009C132.038 32.4292 133.169 32.6872 134.312 32.8734C139.39 33.7084 144.258 35.3577 149.056 37.1407C159.404 40.9992 169.142 46.3274 177.971 52.9614C186.251 59.1285 193.662 66.2268 199.867 74.49C200.508 75.3454 201.161 76.193 201.814 77.0407C203.316 78.9903 204.818 80.9399 206.18 82.9828C206.869 84.0142 207.262 83.8806 208.063 83.4004C218.222 77.5548 228.794 77.6717 239.63 81.1665C242.011 81.9308 244.053 83.2576 246.1 84.5882L246.101 84.5889C246.548 84.8793 246.995 85.1698 247.446 85.4547C247.446 86.1797 247.01 86.1346 246.599 86.0922H246.599C246.471 86.0789 246.345 86.0659 246.235 86.0769C245.772 86.1326 245.302 86.12 244.83 86.1074H244.83C244.134 86.0887 243.435 86.07 242.749 86.2689ZM206.163 159.406L207.758 158.538C208.451 158.062 209.145 158.216 209.846 158.517C211.199 159.176 211.641 160.375 211.7 161.761C211.825 164.634 209.537 168.312 206.923 169.494C204.309 170.676 202.33 169.436 202.272 166.571C202.221 164.442 203.302 162.809 204.384 161.172L204.384 161.172C204.558 160.909 204.733 160.645 204.902 160.379C205.191 159.913 205.639 159.568 206.163 159.406ZM176.401 164.625C175.645 161.494 172.493 158.462 170.092 158.462C168.242 158.479 167.57 159.711 167.323 161.277C166.818 164.4 169.728 168.918 172.751 169.79C174.822 170.375 176.23 169.435 176.647 167.285C176.764 166.391 176.68 165.482 176.401 164.625Z" fill="url(#paint1_linear_47_13)"/>
<defs>
<linearGradient id="paint0_linear_47_13" x1="0" y1="77" x2="214.244" y2="109.445" gradientUnits="userSpaceOnUse">
<stop stop-color="#6DDCFF"/>
<stop offset="1" stop-color="#7F60F9"/>
</linearGradient>
<linearGradient id="paint1_linear_47_13" x1="247.446" y1="182.987" x2="33.2021" y2="150.542" gradientUnits="userSpaceOnUse">
<stop stop-color="#6DDCFF"/>
<stop offset="1" stop-color="#7F60F9"/>
</linearGradient>
</defs>
</svg>
