<svg width="451" height="405" viewBox="0 0 451 405" fill="none" xmlns="http://www.w3.org/2000/svg">
<path d="M39.1455 241.887C33.0675 238.796 26.9574 239.671 20.828 241.695C20.3119 242.411 19.5585 242.921 18.7018 243.134C17.8451 243.347 16.9407 243.25 16.1492 242.858C11.3921 243.243 6.91547 246.013 1.93725 244.559C0.110667 241.372 0.432577 238.274 2.34361 235.245C2.1765 232.871 3.84608 231.462 5.15822 229.896C6.96702 227.728 8.80387 225.569 10.74 223.46C13.3911 221.13 15.7313 218.436 18.7328 216.506C24.9266 211.989 31.7424 208.393 38.9677 205.83C41.2698 205.014 43.6145 204.324 45.9914 203.762C50.8389 202.629 55.7552 201.814 60.7089 201.323C62.4145 201.254 64.108 201.021 65.8181 200.997C71.2369 200.532 76.6889 201.022 82.0743 200.448C86.3995 200.327 87.821 196.589 90.156 194.021C94.7275 188.131 98.0081 181.472 102.227 175.384C103.433 173.703 104.341 171.823 105.818 170.33C107.215 169.09 108.364 167.595 109.204 165.926C112.433 160.481 116.035 155.266 119.984 150.318C121.985 147.11 124.663 144.426 126.873 141.372C131.062 136.546 134.805 131.4 139.356 126.915C142.715 123.089 146.463 119.646 150.014 115.989C153.472 112.832 157.132 109.902 160.56 106.711C165.344 103.02 170.013 99.1793 175.115 95.9195C179.657 92.9497 184.214 89.9964 188.914 87.2579C189.847 86.746 190.806 86.2763 191.759 85.8254C195.714 83.6383 199.81 81.7292 203.767 79.5644C208.021 77.6619 212.437 76.1206 216.65 74.1278C218.422 73.464 220.205 72.8261 221.963 72.1143C225.37 71.0881 228.67 69.7536 232.077 68.7274C234.885 67.8694 236.131 66.1393 235.535 63.2058C234.753 59.0145 232.869 55.1634 231.713 51.0547C230.256 47.6012 228.923 44.099 227.569 40.5992C226.67 37.7861 224.696 35.4632 223.875 32.6153C222.339 27.2279 219.464 22.3798 217.678 17.0895C216.512 13.683 215.022 10.399 214.29 6.83644C213.022 0.716386 213.992 -0.37004 220.171 0.51364L228.808 0.534184C233.939 1.10008 239.032 1.96503 244.063 3.12465L257.967 9.21322L270.875 18.3146L280.186 27.1398L291.149 40.9363C294.906 46.644 298.663 52.3517 302.41 58.0558C304.415 61.0737 307.252 63.4455 310.577 64.8837C316.852 64.9801 322.579 67.0825 328.378 69.2765L343.052 74.1818L355.534 79.537L371.624 87.8687L381.728 94.0746L399.056 106.012L406.216 111.494L417.613 121.53L427.49 132.442C432.111 136.018 434.651 141.156 437.695 145.951C440.262 150.458 442.486 155.152 444.35 159.992C449.421 172.907 451.773 186.222 450.303 200.106C449.639 206.861 448.387 213.446 444.65 219.279C444.137 220.067 443.828 220.971 443.75 221.908C443.672 222.846 443.827 223.788 444.202 224.65C445.202 227.17 445.775 229.913 446.795 232.462C447.473 235.126 447.965 237.828 448.674 240.494C449.406 244.195 449.521 247.748 446.489 250.629C441.713 251.937 439.188 254.272 441.161 259.804C441.931 261.969 440.496 263.916 437.623 263.734C436.672 263.669 435.727 263.528 434.799 263.312C429.368 262.232 424.399 259.882 419.295 257.857C414.937 255.59 410.378 253.707 406.406 250.731C400.168 247.075 394.265 242.905 388.132 239.086C386.827 238.125 385.376 237.382 383.833 236.885C382.74 236.484 381.699 235.952 380.734 235.3C375.748 232.602 371.423 228.839 366.163 226.551C362.268 224.92 359.109 221.944 355.112 220.499C350.229 217.686 345.149 215.229 339.912 213.147C336.284 211.971 332.637 210.841 328.74 211.157C327.541 211.244 326.352 211.448 325.192 211.766C319.658 212.871 314.608 215.573 309.026 216.468C306.809 216.916 304.606 217.419 302.418 217.978C290.942 219.778 279.224 219.289 267.938 216.541C263.03 215.159 258.242 213.385 253.619 211.235C249.244 209.329 245.075 206.98 241.177 204.227C238.655 202.026 235.887 200.076 233.532 197.715C231.178 195.354 231.437 194.222 234.053 192.349C235.46 191.324 237.019 190.527 238.674 189.988C243.471 188.345 247.9 185.814 252.673 184.119C259.379 181.93 265.823 178.966 272.762 177.346C268.197 176.745 263.653 176.205 259.079 175.995C254.252 176 249.439 176.193 244.617 176.328C243.427 176.303 242.228 176.307 241.035 176.378C226.217 177.263 211.521 179.595 197.157 183.339C191.5 184.794 185.87 186.462 180.351 188.429C179.869 188.629 179.376 188.799 178.874 188.937C173.331 190.639 167.903 192.695 162.625 195.095C160.524 195.755 158.484 196.594 156.526 197.601C153.186 198.99 149.925 200.56 146.756 202.306C141.533 204.804 136.46 207.604 131.564 210.694C130.59 211.103 129.645 211.577 128.735 212.112C125.289 214.846 121.228 216.832 118.644 220.589C116.874 223.275 118.573 225.644 119.363 228.095C120.698 231.967 121.778 235.923 122.596 239.937C123.106 242.816 123.99 245.612 124.334 248.535C124.529 252.215 124.746 255.892 124.928 259.577C124.58 265.311 123.632 270.993 122.1 276.529C121.009 279.398 119.809 282.216 118.557 285.003C117.709 286.895 116.651 288.75 114.543 289.596C114.015 290.112 113.502 290.645 112.963 291.135C111.827 292.18 111.483 294.52 109.587 294.131C107.692 293.742 106.979 291.567 106.413 289.875C105.344 286.72 104.924 283.35 103.04 280.484C99.653 275.323 94.4618 272.825 89.0718 270.54L77.4141 264.172C73.6381 262.426 72.1623 258.794 70.6199 255.394C69.6106 253.181 68.5086 252.281 66.2117 253.173C63.5569 253.233 60.8339 253.867 58.3729 252.236L51.8775 249.82C47.8159 246.799 44.001 243.552 39.1455 241.887Z" fill="url(#paint0_linear_66_26)"/>
<path d="M313.572 234.789L324.497 227.72C325.956 227.174 327.373 226.522 328.737 225.77C329.475 225.261 330.339 224.964 331.234 224.912C332.129 224.86 333.021 225.054 333.813 225.474C338.772 226.022 342.721 229.086 347.187 230.848C353.146 233.52 358.734 236.917 364.666 239.633C367.847 241.367 371.193 242.81 374.122 244.983C374.294 245.232 374.389 245.527 374.398 245.83C374.406 246.133 374.326 246.432 374.168 246.69C370.726 248.934 366.743 249.645 362.85 250.572C359.136 251.176 355.393 251.581 351.636 251.786C343.366 251.93 335.156 250.353 327.528 247.156C325.415 246.299 323.574 244.893 321.354 244.231C318.518 243.016 315.944 241.264 313.774 239.07C312.505 237.764 311.542 236.328 313.572 234.789Z" fill="url(#paint1_linear_66_26)"/>
<path fill-rule="evenodd" clip-rule="evenodd" d="M421.168 274.209C423.867 274.792 425.583 277.453 425 280.152C417.887 313.098 400.365 342.882 375.023 365.104C349.681 387.326 317.862 400.806 284.269 403.553C250.676 406.3 217.09 398.168 188.475 380.358C159.859 362.549 137.731 336.007 125.36 304.654C124.347 302.085 125.607 299.181 128.176 298.168C130.745 297.154 133.649 298.415 134.662 300.984C146.245 330.341 166.964 355.193 193.758 371.868C220.552 388.544 252 396.158 283.454 393.586C314.908 391.014 344.701 378.392 368.43 357.585C392.159 336.778 408.566 308.89 415.225 278.042C415.808 275.342 418.469 273.627 421.168 274.209Z" fill="url(#paint2_linear_66_26)"/>
<defs>
<linearGradient id="paint0_linear_66_26" x1="0.725586" y1="0.244141" x2="502.81" y2="81.2301" gradientUnits="userSpaceOnUse">
<stop stop-color="#6DDCFF"/>
<stop offset="1" stop-color="#7F60F9"/>
</linearGradient>
<linearGradient id="paint1_linear_66_26" x1="0.725586" y1="0.244141" x2="502.81" y2="81.2301" gradientUnits="userSpaceOnUse">
<stop stop-color="#6DDCFF"/>
<stop offset="1" stop-color="#7F60F9"/>
</linearGradient>
<linearGradient id="paint2_linear_66_26" x1="0.725586" y1="0.244141" x2="502.81" y2="81.2301" gradientUnits="userSpaceOnUse">
<stop stop-color="#6DDCFF"/>
<stop offset="1" stop-color="#7F60F9"/>
</linearGradient>
</defs>
</svg>
